<?xml version="1.0" encoding="UTF-8" standalone="no"?>
<!-- Created with Inkscape (http://www.inkscape.org/) -->
<svg xmlns:dc="http://purl.org/dc/elements/1.1/" xmlns:cc="http://creativecommons.org/ns#" xmlns:rdf="http://www.w3.org/1999/02/22-rdf-syntax-ns#" xmlns:svg="http://www.w3.org/2000/svg" xmlns="http://www.w3.org/2000/svg" xmlns:sodipodi="http://sodipodi.sourceforge.net/DTD/sodipodi-0.dtd" xmlns:inkscape="http://www.inkscape.org/namespaces/inkscape" version="1.0" width="729.58466" height="429.76389" id="svg2" inkscape:version="0.48.3.1 r9886" sodipodi:docname="schéma_oeil.svg">
  <metadata id="metadata94">
    <rdf:RDF>
      <cc:Work rdf:about="">
        <dc:format>image/svg+xml</dc:format>
        <dc:type rdf:resource="http://purl.org/dc/dcmitype/StillImage"/>
      </cc:Work>
    </rdf:RDF>
  </metadata>
  <sodipodi:namedview pagecolor="#ffffff" bordercolor="#666666" borderopacity="1" objecttolerance="10" gridtolerance="10" guidetolerance="10" inkscape:pageopacity="0" inkscape:pageshadow="2" inkscape:window-width="1859" inkscape:window-height="1056" id="namedview92" showgrid="false" showguides="true" inkscape:guide-bbox="true" inkscape:zoom="0.90421456" inkscape:cx="786.97973" inkscape:cy="15.258879" inkscape:window-x="61" inkscape:window-y="24" inkscape:window-maximized="1" inkscape:current-layer="svg2" fit-margin-top="0" fit-margin-left="0" fit-margin-right="0" fit-margin-bottom="0"/>
  <defs id="defs3">
    <inkscape:path-effect effect="spiro" id="path-effect3193" is_visible="true"/>
    <inkscape:path-effect effect="spiro" id="path-effect3189" is_visible="true"/>
    <inkscape:path-effect effect="spiro" id="path-effect3181" is_visible="true"/>
    <inkscape:path-effect effect="spiro" id="path-effect3177" is_visible="true"/>
    <inkscape:path-effect effect="spiro" id="path-effect3173" is_visible="true"/>
    <inkscape:path-effect effect="spiro" id="path-effect3169" is_visible="true"/>
    <inkscape:path-effect effect="spiro" id="path-effect3143" is_visible="true"/>
    <inkscape:path-effect effect="spiro" id="path-effect3139" is_visible="true"/>
    <inkscape:path-effect effect="spiro" id="path-effect3127" is_visible="true"/>
    <inkscape:path-effect effect="spiro" id="path-effect3119" is_visible="true"/>
    <inkscape:path-effect effect="spiro" id="path-effect3115" is_visible="true"/>
    <inkscape:path-effect effect="spiro" id="path-effect3111" is_visible="true"/>
    <clipPath id="clipPath_Ziliarkoerper">
      <rect width="25.15164" height="363.55557" x="384.89636" y="105.87533" id="Rechteck_Ziliarkoerper" style="opacity:0.52892558;fill:#000000;fill-opacity:1;fill-rule:evenodd;stroke:#000000;stroke-width:1;stroke-linecap:butt;stroke-linejoin:bevel;stroke-miterlimit:4;stroke-opacity:1;stroke-dasharray:none;stroke-dashoffset:100"/>
    </clipPath>
  </defs>
  <g transform="matrix(-1,0,0,1,674.54415,-77.253328)" id="Vektorzeichnung" style="display:inline">
    <g transform="translate(2.5,1.753054)" id="Gruppierung Vektor">
      <path d="m 0.5,306.86535 c 18.51818,-12.22708 57.86041,11.32759 64.1875,-13 C 68.62491,148.70193 169.75096,79.78168 253.15625,80.7091 c 83.39227,0.92728 123.60811,37.32183 160.34375,79.8125 32.78803,36.38996 67.4848,80.87385 67.59543,128.70218 0.11061,47.81952 -25.00609,87.84477 -47.16359,118.54782 -63.91107,121.91869 -243.37813,134.94384 -333.88109,4.44723 -20.85299,12.60771 -41.94917,30.04732 -66.258595,34.33213" id="Lederhaut" style="fill:#fcfdc3;fill-opacity:1;fill-rule:evenodd;stroke:#000000;stroke-width:1px;stroke-linecap:butt;stroke-linejoin:miter;stroke-opacity:1" inkscape:connector-curvature="0"/>
      <path d="m 2.16955,333.34839 c 20.07877,-15.09557 69.21869,0.17894 77.39503,-11.51159 8.59318,-23.25778 1.89232,-61.70729 11.45508,-91.86728 17.39908,-57.52229 45.23272,-90.52781 98.29012,-115.95652 38.55233,-18.476895 78.98115,-26.214451 131.2404,-6.16372 27.66112,10.61297 54.88927,27.83753 72.30285,52.06402 7.49802,10.43156 15.65299,20.77335 20.9816,32.46686 5.32861,11.69351 86.39853,91.58159 -1.14713,210.95394 C 325.14184,522.70645 181.3754,500.25313 100.48632,385.70148 81.34568,398.36846 54.43069,421.79418 26.625,419.2716" id="Aderhaut" style="fill:#f96e5b;fill-opacity:1;fill-rule:evenodd;stroke:#000000;stroke-width:1px;stroke-linecap:butt;stroke-linejoin:miter;stroke-opacity:1" inkscape:connector-curvature="0"/>
      <path d="m 2.16955,333.34839 c 20.07877,-15.09557 69.21869,0.17894 77.39503,-11.51159 8.59318,-23.25778 1.89232,-61.70729 11.45508,-91.86728 17.39908,-57.52229 45.23272,-90.52781 98.29012,-115.95652 38.55233,-18.476895 78.98115,-26.214451 131.2404,-6.16372 27.66112,10.61297 54.88927,27.83753 72.30285,52.06402 7.49802,10.43156 15.65299,20.77335 20.9816,32.46686 5.32861,11.69351 86.39853,91.58159 -1.14713,210.95394 C 325.14184,522.70645 181.3754,500.25313 100.48632,385.70148 81.34568,398.36846 54.43069,421.79418 26.625,419.2716" clip-path="url(#clipPath_Ziliarkoerper)" id="Ziliarkoerper" style="fill:#f4c1ba;fill-opacity:1;fill-rule:evenodd;stroke:#000000;stroke-width:1px;stroke-linecap:butt;stroke-linejoin:miter;stroke-opacity:1" inkscape:connector-curvature="0"/>
      <g id="Sehnervgruppe">
        <path d="m 2.623227,335.89719 c 11.698196,-6.7878 26.413461,-8.60335 39.688204,-7.41142 13.095129,0.39413 26.374679,1.06831 39.245669,-1.9319 10.16937,-2.03479 20.09641,-5.13506 29.8179,-8.71977 9.72149,-3.58471 23.77231,48.9366 19.84375,50.09375 -3.92856,1.15715 -7.76716,2.60865 -11.50845,4.27196 -15.18286,6.58264 -28.28945,16.80573 -41.82562,26.12642 -15.16773,10.33495 -33.399523,19.58795 -52.24534,18.93888" id="Sehnerv" style="fill:#ffffff;fill-opacity:1;fill-rule:evenodd;stroke:#000000;stroke-width:1px;stroke-linecap:butt;stroke-linejoin:miter;stroke-opacity:1" inkscape:connector-curvature="0"/>
        <path d="M 93.87015,333.69084 C 8.69592,358.71508 8.69592,358.71508 8.69592,358.71508" id="Sehnerv-Faser1" style="fill:#ffffff;fill-opacity:0.75;fill-rule:evenodd;stroke:#000000;stroke-width:1px;stroke-linecap:butt;stroke-linejoin:miter;stroke-opacity:1" inkscape:connector-curvature="0"/>
        <path d="m 19.71577,361.69962 c 83.33758,-26.6313 83.33758,-26.6313 83.33758,-26.6313" id="Sehnerv-Faser2" style="fill:none;stroke:#000000;stroke-width:1px;stroke-linecap:butt;stroke-linejoin:miter;stroke-opacity:1" inkscape:connector-curvature="0"/>
        <path d="M 16.73123,372.48988 C 82.39114,348.15439 82.39114,348.15439 82.39114,348.15439" id="Sehnerv-Faser3" style="fill:none;stroke:#000000;stroke-width:1px;stroke-linecap:butt;stroke-linejoin:miter;stroke-opacity:1" inkscape:connector-curvature="0"/>
        <path d="M 21.55241,380.06603 C 99.15049,348.15439 99.15049,348.15439 99.15049,348.15439" id="Sehnerv-Faser4" style="fill:none;stroke:#000000;stroke-width:1px;stroke-linecap:butt;stroke-linejoin:miter;stroke-opacity:1" inkscape:connector-curvature="0"/>
        <path d="m 19.25661,389.70839 c 81.73052,-34.89618 81.73052,-34.89618 81.73052,-34.89618" id="Sehnerv-Faser5" style="fill:none;stroke:#000000;stroke-width:1px;stroke-linecap:butt;stroke-linejoin:miter;stroke-opacity:1" inkscape:connector-curvature="0"/>
        <path d="m 22.24115,396.5958 c 82.87842,-37.65114 82.87842,-37.65114 82.87842,-37.65114" id="Sehnerv-Faser6" style="fill:none;stroke:#000000;stroke-width:1px;stroke-linecap:butt;stroke-linejoin:miter;stroke-opacity:1" inkscape:connector-curvature="0"/>
        <path d="m 41.2963,398.20286 c 63.36411,-30.30458 63.36411,-30.30458 63.36411,-30.30458" id="Sehnerv-Faser7" style="fill:none;stroke:#000000;stroke-width:1px;stroke-linecap:butt;stroke-linejoin:miter;stroke-opacity:1" inkscape:connector-curvature="0"/>
      </g>
      <path d="m 422.40114,387.78407 -14.39999,3.59159 c -21.34939,-14.38919 -2.80913,20.56226 -18.974,34.45103 -16.16488,13.88877 -93.34809,44.28083 -143.7931,32.42703 -50.44501,-11.8538 -84.47281,-46.64654 -113.34266,-89.83187 -4.01303,-6.00293 -7.86305,-14.15315 -11.55389,-20.40536 -1.47842,-1.94351 -2.27386,-4.52893 -8.02441,-4.43082 3.30114,-4.37689 2.22788,-5.61755 2.21606,-7.49549 -1.41413,-6.74718 -2.52461,-11.4413 -3.33949,-18.06259 -5.67231,-46.09036 2.97879,-88.65121 23.24176,-121.00547 23.17393,-37.00224 58.78321,-67.43805 101.36452,-75.85941 34.38975,-6.8013 69.3602,-2.5728 102.862,6.19843 25.48847,7.27025 48.54828,27.1632 48.56305,45.13791 0.24843,43.92127 19.53893,20.0911 20.48747,19.97583 l 23.95576,3.58715" id="Netzhaut" style="fill:#24d701;fill-opacity:1;fill-rule:evenodd;stroke:#000000;stroke-width:1px;stroke-linecap:butt;stroke-linejoin:miter;stroke-opacity:1" inkscape:connector-curvature="0"/>
      <path d="m 412.33714,273.40418 c -5.51011,-0.46786 -6.74262,-12.49281 -7.01209,-16.13304 -1.16629,-13.94879 -0.67998,-27.95606 -0.47478,-41.93122 0.0795,-5.41215 0.5467,-10.81804 0.24654,-16.22578 -4.13449,0.1622 -7.25216,4.27389 -11.47914,3.93788 -4.96537,1.0728 -10.55599,-8.41805 -12.74998,-31.66742 0.2372,-3.51567 -1.17704,-8.37124 -3.74269,-12.20675 -14.09765,-16.00337 -34.31795,-25.77318 -54.5,-31.875 -16.17539,-4.06712 -33.15883,-6.18691 -50.09375,-6 -0.25258,0.003 -0.49744,-0.004 -0.75,0 -32.07464,0.48413 -63.93882,9.24795 -89.8125,28.59375 -55.58567,40.16763 -77.93393,111.57812 -62.0676,184.10949 0.35928,2.95893 -4.46201,7.05259 -7.11579,9.34694 4.89326,-0.21519 8.72906,-1.7403 10.78337,1.17817 35.79958,66.70972 92.19998,113.42912 146.96325,112.25959 37.36686,-0.79802 82.32749,-13.58504 98.8182,-22.72324 16.49071,-9.1382 13.07746,-7.8839 19.67333,-12.78347 3.20347,-1.04607 3.60209,-6.01162 3.80184,-9.83486 0.5711,-6.343 -0.23416,-14.84931 -0.18973,-21.18593 0.604,-6.0122 8.30439,-8.31168 13.21122,-6.0235 -1.34678,-6.09032 -1.15126,-12.35402 -1.0427,-18.52696 0.20748,-11.79829 -1.08156,-23.6399 0.15965,-35.42327 0.78452,-6.373 2.60338,-14.13229 9.14342,-16.90166" id="Glaskörper" style="fill:#d6f4c6;fill-opacity:1;fill-rule:evenodd;stroke:#000000;stroke-width:0.99999988px;stroke-linecap:butt;stroke-linejoin:miter;stroke-opacity:1" inkscape:connector-curvature="0"/>
      <g id="Schlemm-Kanäle_2">
        <path d="m 417.31179,408.50088 c 6.3e-4,0.39983 -0.21231,0.76956 -0.55847,0.96966 -0.34616,0.2001 -0.77283,0.2001 -1.11899,0 -0.34616,-0.2001 -0.5591,-0.56983 -0.55847,-0.96966 -6.3e-4,-0.39983 0.21231,-0.76956 0.55847,-0.96966 0.34616,-0.2001 0.77283,-0.2001 1.11899,0 0.34616,0.2001 0.5591,0.56983 0.55847,0.96966 l 0,0 z" id="Schlemm-Kanal_2.1" style="opacity:0.83999999;fill:#0000ff;fill-opacity:0.78431373;fill-rule:evenodd;stroke:#0000ff;stroke-width:2;stroke-linejoin:miter;stroke-miterlimit:4;stroke-opacity:0.78431373;stroke-dasharray:none" inkscape:connector-curvature="0"/>
        <path d="m 421.95558,411.42483 c 6.3e-4,0.39983 -0.21231,0.76956 -0.55847,0.96966 -0.34616,0.2001 -0.77283,0.2001 -1.11899,0 -0.34616,-0.2001 -0.5591,-0.56983 -0.55847,-0.96966 -6.3e-4,-0.39983 0.21231,-0.76956 0.55847,-0.96966 0.34616,-0.2001 0.77283,-0.2001 1.11899,0 0.34616,0.2001 0.5591,0.56983 0.55847,0.96966 z" id="Schlemm-Kanal_2.2" style="opacity:0.83999999;fill:#0000ff;fill-opacity:0.78431373;fill-rule:evenodd;stroke:#0000ff;stroke-width:2;stroke-linejoin:miter;stroke-miterlimit:4;stroke-opacity:0.78431373;stroke-dasharray:none" inkscape:connector-curvature="0"/>
        <path d="m 412.15195,415.72468 c 0,0.61744 -0.50053,1.11797 -1.11797,1.11797 -0.61744,0 -1.11797,-0.50053 -1.11797,-1.11797 0,-0.61744 0.50053,-1.11797 1.11797,-1.11797 0.61744,0 1.11797,0.50053 1.11797,1.11797 z" id="Schlemm-Kanal_2.3" style="opacity:0.83999999;fill:#0000ff;fill-opacity:0.78431373;fill-rule:evenodd;stroke:#0000ff;stroke-width:2;stroke-linejoin:miter;stroke-miterlimit:4;stroke-opacity:0.78431373;stroke-dasharray:none" inkscape:connector-curvature="0"/>
        <path d="m 408.99867,418.82056 c 6.4e-4,0.52273 -0.27787,1.00603 -0.73046,1.26759 -0.45259,0.26155 -1.0104,0.26155 -1.46299,0 -0.45259,-0.26156 -0.7311,-0.74486 -0.73046,-1.26759 -6.4e-4,-0.52273 0.27787,-1.00603 0.73046,-1.26759 0.45259,-0.26155 1.0104,-0.26155 1.46299,0 0.45259,0.26156 0.7311,0.74486 0.73046,1.26759 z" id="Schlemm-Kanal_2.4" style="opacity:0.83999999;fill:#0000ff;fill-opacity:0.78431373;fill-rule:evenodd;stroke:#0000ff;stroke-width:2;stroke-linejoin:miter;stroke-miterlimit:4;stroke-opacity:0.78431373;stroke-dasharray:none" inkscape:connector-curvature="0"/>
        <path d="m 417.99971,417.3586 c 0.001,0.36938 -0.19542,0.71114 -0.51514,0.89614 -0.31972,0.18499 -0.71393,0.18499 -1.03365,0 -0.31972,-0.185 -0.51618,-0.52676 -0.51514,-0.89614 -0.001,-0.36938 0.19542,-0.71114 0.51514,-0.89614 0.31972,-0.18499 0.71393,-0.18499 1.03365,0 0.31972,0.185 0.51618,0.52676 0.51514,0.89614 z" id="Schlemm-Kanal_2.5" style="opacity:0.83999999;fill:#0000ff;fill-opacity:0.78431373;fill-rule:evenodd;stroke:#0000ff;stroke-width:2;stroke-linejoin:miter;stroke-miterlimit:4;stroke-opacity:0.78431373;stroke-dasharray:none" inkscape:connector-curvature="0"/>
      </g>
      <path d="m 380.94024,336.70156 13.16346,50.00711 c 2.59372,-3.28375 7.98694,-4.22049 11.74314,-2.46888 -1.34678,-6.09032 -1.15126,-12.35402 -1.0427,-18.52696 0.20748,-11.79829 -1.08156,-23.6399 0.15965,-35.42327 0.78452,-6.373 2.60338,-14.13229 9.16029,-16.82434 4.85202,-4.42396 9.24679,3.65093 6.34844,10.16232 -0.78517,1.18288 -7.25681,18.47129 -7.33727,30.151 -0.23912,0.10278 -0.2624,35.19787 -0.36877,49.73604 27.66598,-29.42537 56.71947,-92.23935 47.36744,-135.39141 -4.17282,-17.42895 -12.05632,-34.4468 -22.77278,-48.662 -6.60013,-8.51703 -15.86399,-17.93131 -23.67863,-26.8456 -0.28194,1.21016 -3.60941,26.74969 -1.08632,46.17467 1.29465,10.9296 7.32497,18.42736 7.64383,29.6346 0.93217,3.2286 -1.98892,7.20569 -5.48723,6.40335 -0.99587,-0.32971 -1.84773,-0.86316 -2.4945,-1.48043 -5.43126,-0.41144 -6.66377,-12.43639 -6.93324,-16.07662 -1.16629,-13.94879 -0.67998,-27.95606 -0.47478,-41.93122 0.0795,-5.41215 0.5467,-10.81804 0.24654,-16.22578 -4.13449,0.1622 -7.25216,4.27389 -11.47914,3.93788 -1.53723,0.33213 -3.13438,-0.34823 -4.687,-2.08523 l -0.0149,0.0506 -8.11145,41.91481" id="Augenkammer" style="fill:#c6ecf4;fill-opacity:1;fill-rule:evenodd;stroke:#000000;stroke-width:1px;stroke-linecap:butt;stroke-linejoin:miter;stroke-opacity:1" inkscape:connector-curvature="0"/>
      <path d="m 386.00638,340.90059 c -11.91767,-8.16434 -17.88255,-22.67856 -19.09317,-36.67832 -1.08707,-9.43349 -0.66646,-18.96782 -0.0976,-28.41647 1.3923,-10.31235 3.55142,-21.18177 10.222,-29.49546 2.93222,-3.5348 7.57581,-6.7183 12.35502,-5.10917 4.65904,1.46435 6.9676,6.30673 9.16522,10.27372 5.79148,13.10932 8.24925,27.50039 8.80999,41.75743 0.34221,14.27639 -1.79294,29.06568 -8.85285,41.66342 -1.85563,3.568 -5.34586,6.34875 -9.5098,6.3315 -1.08056,0.035 -2.16816,-0.0976 -3.20395,-0.40992" id="Linse" style="fill:#eeeef8;fill-opacity:1;fill-rule:evenodd;stroke:#000000;stroke-width:1px;stroke-linecap:butt;stroke-linejoin:miter;stroke-opacity:1" inkscape:connector-curvature="0"/>
      <g id="Zonulafasern">
        <path d="m 392.2099,203.22132 -4.76968,37.66942" id="Zonulafaser_1" style="fill:none;stroke:#000000;stroke-width:1.00000012px;stroke-linecap:butt;stroke-linejoin:miter;stroke-opacity:1" inkscape:connector-curvature="0"/>
        <path d="m 395.1777,203.08715 -1.58989,40.55388" id="Zonulafaser_2" style="fill:none;stroke:#000000;stroke-width:0.99999988px;stroke-linecap:butt;stroke-linejoin:miter;stroke-opacity:1" inkscape:connector-curvature="0"/>
        <path d="m 389.48494,341.13515 6.57736,43.68982" id="Zonulafaser_3" style="fill:none;stroke:#000000;stroke-width:1px;stroke-linecap:butt;stroke-linejoin:miter;stroke-opacity:1" inkscape:connector-curvature="0"/>
        <path d="m 395.22591,338.86196 3.30948,44.72033" id="Zonulafaser_4" style="fill:none;stroke:#000000;stroke-width:1px;stroke-linecap:butt;stroke-linejoin:miter;stroke-opacity:1" inkscape:connector-curvature="0"/>
      </g>
      <g id="Iris">
        <path d="m 407.82646,191.99349 c 0.35448,4.31973 0.98832,44.61258 0.0964,54.41502 0.41947,6.38241 0.26682,12.79943 0.71631,19.17202 0.57923,3.68672 2.27847,7.97793 6.11359,9.24766 3.49831,0.80234 6.4194,-3.17475 5.48723,-6.40335 -0.31886,-11.20724 -6.34918,-18.705 -7.64383,-29.6346 -2.52309,-19.42498 0.78377,-45.66528 1.07731,-46.88673 l -3.64963,-6.39866 -1.87291,-3.28364" id="Iris_oben" style="fill:#f79273;fill-opacity:1;fill-rule:evenodd;stroke:#000000;stroke-width:1px;stroke-linecap:butt;stroke-linejoin:miter;stroke-opacity:1" inkscape:connector-curvature="0"/>
        <path d="m 407.62392,391.26566 c 5.26031,-19.17013 -0.98944,-41.79812 0.53283,-56.11612 0.39591,-2.53473 0.56234,-13.672 4.26606,-19.466 5.41503,-8.569 11.28994,0.66455 8.04971,7.944 -0.78517,1.18288 -7.25681,18.47129 -7.33727,30.151 -0.23912,0.10278 -0.38123,35.35065 -0.48536,49.89165 l -5.39812,6.81923" id="Iris_unten" style="fill:#f79273;fill-opacity:1;fill-rule:evenodd;stroke:#000000;stroke-width:1px;stroke-linecap:butt;stroke-linejoin:miter;stroke-opacity:1" inkscape:connector-curvature="0"/>
      </g>
      <g id="Irisfortsätze">
        <g id="Irisfortsätze_oben">
          <path d="m 410.811,187.49398 c 0.33422,-0.44641 -0.60182,-2.73552 -1.05464,-1.92285 -0.45282,0.81267 -0.37376,1.81156 -0.44629,2.69207 -0.0864,0.82332 -0.16396,2.03138 0.067,2.85644 0.3729,-0.0414 0.49308,-0.39748 0.56508,-0.71779 0.0277,-0.46237 0.0598,-0.93597 0.19031,-1.38842 0.14796,-0.53324 0.3443,-1.07304 0.67852,-1.51945 z" id="Irisfortsatz_oben_1" style="fill:#ffffff;fill-opacity:1;fill-rule:evenodd;stroke:#000000;stroke-width:0.5;stroke-linecap:butt;stroke-linejoin:miter;stroke-miterlimit:4;stroke-opacity:1;stroke-dasharray:none" inkscape:connector-curvature="0"/>
          <path d="m 412.2563,189.40673 c 0.0979,-0.39813 -0.44296,-2.13221 -0.86378,-0.93472 -0.42082,1.19749 -0.65626,2.76196 -0.87525,4.00635 0.60236,-0.52009 1.06489,-1.25762 1.23391,-1.65056 0.13869,-0.38712 0.40721,-1.02294 0.50512,-1.42107 z" id="Irisfortsatz_oben_2" style="fill:#ffffff;fill-opacity:1;fill-rule:evenodd;stroke:#000000;stroke-width:0.5;stroke-linecap:butt;stroke-linejoin:miter;stroke-miterlimit:4;stroke-opacity:1;stroke-dasharray:none" inkscape:connector-curvature="0"/>
          <path d="m 413.58249,191.58507 c 0.0975,-0.21168 -0.40079,-1.45038 -0.62069,-1.04338 -0.2199,0.407 -0.63081,1.28946 -0.62828,1.75694 -3.1e-4,0.24456 -0.0146,0.49021 -0.0738,0.72809 -0.0487,0.3903 -0.10823,0.7792 -0.15201,1.17012 0.37631,-0.20917 0.65837,-0.55169 0.89434,-0.90478 0.15989,-0.25824 0.31892,-0.53777 0.33553,-0.84788 -0.0265,-0.23207 0.14745,-0.64743 0.24494,-0.85911 z" id="Irisfortsatz_oben_3" style="fill:#ffffff;fill-opacity:1;fill-rule:evenodd;stroke:#000000;stroke-width:0.5;stroke-linecap:butt;stroke-linejoin:miter;stroke-miterlimit:4;stroke-opacity:1;stroke-dasharray:none" inkscape:connector-curvature="0"/>
        </g>
        <g id="Irisfortsätze_unten">
          <path d="m 410.32647,406.66613 -1.3731,1.29431 c -1.21209,-5.00232 -0.50964,-7.69102 -0.40203,-8.09008 0.46202,0.16555 0.93624,2.14191 1.30749,3.61817 0.32589,1.12034 0.0965,2.06885 0.46764,3.1776 z" id="Irisfortsatz_unten_1" style="fill:#ffffff;fill-opacity:1;fill-rule:evenodd;stroke:#000000;stroke-width:0.5;stroke-linecap:butt;stroke-linejoin:miter;stroke-miterlimit:4;stroke-opacity:1;stroke-dasharray:none" inkscape:connector-curvature="0"/>
          <path d="m 411.01573,405.49766 0.96421,-1.26338 c -0.65504,-1.65547 -0.66983,-3.46053 -0.78848,-5.21152 0.0601,-0.86299 0.53902,-1.71665 0.27435,-2.58576 -0.1964,-0.42631 -1.32509,-0.67231 -1.67105,-0.2821 -0.28368,0.42983 -1.07561,0.7537 -0.24225,2.5494 0.51327,0.53759 0.7086,3.16513 1.46322,6.79336 z" id="Irisfortsatz_unten_2" style="fill:#ffffff;fill-opacity:1;fill-rule:evenodd;stroke:#000000;stroke-width:0.5;stroke-linecap:butt;stroke-linejoin:miter;stroke-miterlimit:4;stroke-opacity:1;stroke-dasharray:none" inkscape:connector-curvature="0"/>
        </g>
      </g>
      <path d="m 445.3764,199.16412 -31.55314,-7.13979 -0.12107,0.64586 c 7.82624,8.90301 17.05882,18.27395 23.65895,26.79098 10.71646,14.2152 18.59996,31.23305 22.77278,48.662 9.35203,43.15206 -19.70146,105.96604 -47.36968,135.38858 l 26.28733,-2.94269 c 20.72972,-29.66426 42.14602,-67.18058 42.04386,-111.34528 -0.074,-31.98973 -15.62022,-62.48331 -35.71903,-90.05966 z" id="Hornhaut" style="fill:#f4ea98;fill-opacity:1;fill-rule:evenodd;stroke:#000000;stroke-width:1px;stroke-linecap:butt;stroke-linejoin:miter;stroke-opacity:1" inkscape:connector-curvature="0"/>
      <g id="Schlemm-Kanäle_1">
        <path d="m 420.0295,177.51881 c 6.9e-4,0.8512 -0.68916,1.5416 -1.54036,1.5416 -0.8512,0 -1.54105,-0.6904 -1.54036,-1.5416 -6.9e-4,-0.8512 0.68916,-1.5416 1.54036,-1.5416 0.8512,0 1.54105,0.6904 1.54036,1.5416 z" id="Schlemm-Kanäle_1.1" style="opacity:0.83999999;fill:#0000ff;fill-opacity:0.78431373;fill-rule:evenodd;stroke:#0000ff;stroke-width:2;stroke-linejoin:miter;stroke-miterlimit:4;stroke-opacity:0.78431373;stroke-dasharray:none;display:inline" inkscape:connector-curvature="0"/>
        <path d="m 416.27903,181.80503 c 0,0.48084 -0.3898,0.87064 -0.87064,0.87064 -0.48084,0 -0.87064,-0.3898 -0.87064,-0.87064 0,-0.48084 0.3898,-0.87064 0.87064,-0.87064 0.48084,0 0.87064,0.3898 0.87064,0.87064 l 0,0 z" id="Schlemm-Kanal_1.2" style="opacity:0.83999999;fill:#0000ff;fill-opacity:0.78431373;fill-rule:evenodd;stroke:#0000ff;stroke-width:2;stroke-linejoin:miter;stroke-miterlimit:4;stroke-opacity:0.78431373;stroke-dasharray:none;display:inline" inkscape:connector-curvature="0"/>
        <path d="m 421.10107,184.283 c 0,0.66578 -0.53972,1.2055 -1.2055,1.2055 -0.66578,0 -1.2055,-0.53972 -1.2055,-1.2055 0,-0.66578 0.53972,-1.2055 1.2055,-1.2055 0.66578,0 1.2055,0.53972 1.2055,1.2055 l 0,0 z" id="Schlemm-Kanal_1.3" style="opacity:0.83999999;fill:#0000ff;fill-opacity:0.78431373;fill-rule:evenodd;stroke:#0000ff;stroke-width:2;stroke-linejoin:miter;stroke-miterlimit:4;stroke-opacity:0.78431373;stroke-dasharray:none;display:inline" inkscape:connector-curvature="0"/>
        <path d="m 418.42218,187.49766 c 0,0.66578 -0.53972,1.2055 -1.2055,1.2055 -0.66578,0 -1.2055,-0.53972 -1.2055,-1.2055 0,-0.66578 0.53972,-1.2055 1.2055,-1.2055 0.66578,0 1.2055,0.53972 1.2055,1.2055 z" id="Schlemm-Kanal_1.4" style="opacity:0.83999999;fill:#0000ff;fill-opacity:0.78431373;fill-rule:evenodd;stroke:#0000ff;stroke-width:2;stroke-linejoin:miter;stroke-miterlimit:4;stroke-opacity:0.78431373;stroke-dasharray:none;display:inline" inkscape:connector-curvature="0"/>
        <path d="m 425.7891,188.97105 c 0,0.88771 -0.71963,1.60733 -1.60733,1.60733 -0.88771,0 -1.60734,-0.71962 -1.60734,-1.60733 0,-0.88771 0.71963,-1.60733 1.60734,-1.60733 0.8877,0 1.60733,0.71962 1.60733,1.60733 z" id="Schlemm-Kanal_1.5" style="opacity:0.83999999;fill:#0000ff;fill-opacity:0.78431373;fill-rule:evenodd;stroke:#0000ff;stroke-width:2;stroke-linejoin:miter;stroke-miterlimit:4;stroke-opacity:0.78431373;stroke-dasharray:none;display:inline" inkscape:connector-curvature="0"/>
      </g>
    </g>
  </g>
  <text style="font-size:18px;font-style:normal;font-variant:normal;font-weight:normal;font-stretch:normal;writing-mode:lr-tb;text-anchor:start;fill:#000000;fill-opacity:1;stroke:none;font-family:Liberation Sans;-inkscape-font-specification:Liberation Sans" xml:space="preserve" id="text:Glaskörper" y="404.36984" x="54.325195">humeur vitrée</text>
  <text style="font-size:18px;font-style:normal;font-variant:normal;font-weight:normal;font-stretch:normal;writing-mode:lr-tb;text-anchor:start;fill:#000000;fill-opacity:1;stroke:none;font-family:Liberation Sans;-inkscape-font-specification:Liberation Sans" xml:space="preserve" id="text2180" y="113.89761" x="635.26044">rétine</text>
  <text sodipodi:linespacing="100%" style="font-size:18px;font-style:normal;font-variant:normal;font-weight:normal;font-stretch:normal;line-height:100%;writing-mode:lr-tb;text-anchor:start;fill:#000000;fill-opacity:1;stroke:none;font-family:Liberation Sans;-inkscape-font-specification:Liberation Sans" xml:space="preserve" id="text2160" y="13.253906" x="635.95477">sclérotique</text>
  <text sodipodi:linespacing="100%" style="font-size:18px;font-style:normal;font-variant:normal;font-weight:normal;font-stretch:normal;line-height:100%;writing-mode:lr-tb;text-anchor:start;fill:#000000;fill-opacity:1;stroke:none;font-family:Liberation Sans;-inkscape-font-specification:Liberation Sans" xml:space="preserve" id="text2168" y="172.94711" x="635.26044">nerf optique</text>
  <text style="font-size:18px;font-style:normal;font-variant:normal;font-weight:normal;font-stretch:normal;writing-mode:lr-tb;text-anchor:start;fill:#000000;fill-opacity:1;stroke:none;font-family:Liberation Sans;-inkscape-font-specification:Liberation Sans" xml:space="preserve" id="text2186" y="263.63351" x="99.764648">cristallin</text>
  <path inkscape:connector-curvature="0" style="fill:none;stroke:#000000;stroke-width:0.9904815px;stroke-linecap:butt;stroke-linejoin:miter;stroke-opacity:1" id="path2202" d="m 257.60069,178.5091 c -86.98548,0 -86.98548,0 -86.98548,0"/>
  <text style="font-size:18px;font-style:normal;font-variant:normal;font-weight:normal;font-stretch:normal;writing-mode:lr-tb;text-anchor:start;fill:#000000;fill-opacity:1;stroke:none;font-family:Liberation Sans;-inkscape-font-specification:Liberation Sans" xml:space="preserve" id="text2204" y="182.07919" x="141.28418">iris</text>
  <path inkscape:connector-curvature="0" style="fill:none;stroke:#000000;stroke-width:0.96802562px;stroke-linecap:butt;stroke-linejoin:miter;stroke-opacity:1" id="path2196" d="m 254.31865,217.8666 -83.70344,0.3227"/>
  <text style="font-size:18px;font-style:normal;font-variant:normal;font-weight:normal;font-stretch:normal;writing-mode:lr-tb;text-anchor:start;fill:#000000;fill-opacity:1;stroke:none;font-family:Liberation Sans;-inkscape-font-specification:Liberation Sans" xml:space="preserve" id="text2198" y="221.58621" x="112.36816">pupille</text>
  <text style="font-size:18px;font-style:normal;font-variant:normal;font-weight:normal;font-stretch:normal;writing-mode:lr-tb;text-anchor:start;fill:#000000;fill-opacity:1;stroke:none;font-family:Liberation Sans;-inkscape-font-specification:Liberation Sans" xml:space="preserve" id="text2216" y="54.932938" x="635.6911">choroïde</text>
  <text style="font-size:18px;font-style:normal;font-variant:normal;font-weight:normal;font-stretch:normal;writing-mode:lr-tb;text-anchor:start;fill:#000000;fill-opacity:1;stroke:none;font-family:Liberation Sans;-inkscape-font-specification:Liberation Sans" xml:space="preserve" id="text2210" y="149.474" x="109.37988">cornée</text>
  <text sodipodi:linespacing="100%" style="font-size:18px;font-style:normal;font-variant:normal;font-weight:normal;font-stretch:normal;line-height:100%;writing-mode:lr-tb;text-anchor:start;fill:#000000;fill-opacity:1;stroke:none;font-family:Liberation Sans;-inkscape-font-specification:Liberation Sans" xml:space="preserve" id="text5156" y="81.723862" x="87.213867">ligaments</text>
  <text sodipodi:linespacing="100%" style="font-size:18px;font-style:normal;font-variant:normal;font-weight:normal;font-stretch:normal;line-height:100%;writing-mode:lr-tb;text-anchor:start;fill:#000000;fill-opacity:1;stroke:none;font-family:Bitstream Vera Sans" xml:space="preserve" id="text5180" y="504.93182" x="1357.6332"/>
  <text sodipodi:linespacing="100%" style="font-size:18px;font-style:normal;font-variant:normal;font-weight:normal;font-stretch:normal;line-height:100%;writing-mode:lr-tb;text-anchor:start;fill:#000000;fill-opacity:1;stroke:none;font-family:Bitstream Vera Sans" xml:space="preserve" y="588.42969" x="1363.7158" id="text3131"/>
  <text sodipodi:linespacing="100%" style="font-size:18px;font-style:normal;font-variant:normal;font-weight:normal;font-stretch:normal;line-height:100%;writing-mode:lr-tb;text-anchor:start;fill:#000000;fill-opacity:1;stroke:none;font-family:Liberation Sans;-inkscape-font-specification:Liberation Sans" xml:space="preserve" id="text5184" y="366.58936" x="-0.76464844">chambre postérieure</text>
  <text sodipodi:linespacing="100%" style="font-size:18px;font-style:normal;font-variant:normal;font-weight:normal;font-stretch:normal;line-height:100%;writing-mode:lr-tb;text-anchor:start;fill:#000000;fill-opacity:1;stroke:none;font-family:Liberation Sans;-inkscape-font-specification:Liberation Sans" xml:space="preserve" id="text5192" y="28.644424" x="33.178711">muscles ciliaires</text>
  <g id="g2510" transform="matrix(-1,0,0,1,672.99657,-77.253328)">
    <path inkscape:connector-curvature="0" style="fill:#000000;fill-opacity:1;fill-rule:evenodd;stroke:none" id="path5196" d="m 418.125,280.5 c 10e-6,14.72204 0,22.10074 0,25.78125 0,1.84026 0,2.75869 0,3.21875 0,0.23003 0,0.34874 0,0.40625 0,0.0288 0,0.0241 0,0.0312 l 0.5,0 0.5,0 c 0,0 10e-6,0.007 0,-29.4375 l -1,0 z"/>
    <path inkscape:connector-curvature="0" style="font-size:12px;fill-rule:evenodd;stroke-width:0.625;stroke-linejoin:round" id="path2516" d="m 416.20038,282.73661 2.41063,-6.55552 2.41063,6.55552 c -1.42323,-1.0473 -3.37047,-1.04126 -4.82126,0 z"/>
    <path inkscape:connector-curvature="0" style="font-size:12px;fill-rule:evenodd;stroke-width:0.625;stroke-linejoin:round" id="path2518" d="m 421.04086,307.7184 -2.41063,6.55552 -2.41063,-6.55552 c 1.42323,1.0473 3.37047,1.04126 4.82126,0 z"/>
  </g>
  <path style="fill:none;stroke:#000000;stroke-width:0.80403745px;stroke-linecap:butt;stroke-linejoin:miter;stroke-opacity:1" d="m 520.35024,46.816362 54.42002,-36.43273 53.49765,0" id="path3109" inkscape:path-effect="#path-effect3111" inkscape:original-d="m 520.35024,46.816362 54.42002,-36.43273 53.49765,0" inkscape:connector-curvature="0"/>
  <path style="fill:none;stroke:#000000;stroke-width:0.93093151px;stroke-linecap:butt;stroke-linejoin:miter;stroke-opacity:1" d="m 529.73438,89.045012 49.74508,-38.78053 48.78845,0" id="path3113" inkscape:path-effect="#path-effect3115" inkscape:original-d="m 529.73438,89.045012 49.74508,-38.78053 48.78845,0" inkscape:connector-curvature="0"/>
  <path style="fill:none;stroke:#000000;stroke-width:0.98264134px;stroke-linecap:butt;stroke-linejoin:miter;stroke-opacity:1" d="m 549.28469,153.17001 38.50432,-44.25924 40.4789,0" id="path3117" inkscape:path-effect="#path-effect3119" inkscape:original-d="m 549.28469,153.17001 38.50432,-44.25924 40.4789,0" inkscape:connector-curvature="0"/>
  <path style="fill:none;stroke:#000000;stroke-width:1.05682695px;stroke-linecap:butt;stroke-linejoin:miter;stroke-opacity:1" d="m 561.01487,279.07397 49.78472,-110.26372 17.46832,0" id="path3125" inkscape:path-effect="#path-effect3127" inkscape:original-d="m 561.01487,279.07397 49.78472,-110.26372 17.46832,0" inkscape:connector-curvature="0"/>
  <path style="fill:none;stroke:#000000;stroke-width:1px;stroke-linecap:butt;stroke-linejoin:miter;stroke-opacity:1" d="m 219.27623,144.89806 -48.66102,0" id="path3137" inkscape:path-effect="#path-effect3139" inkscape:original-d="m 219.27623,144.89806 -48.66102,0" inkscape:connector-curvature="0"/>
  <path style="fill:none;stroke:#000000;stroke-width:1px;stroke-linecap:butt;stroke-linejoin:miter;stroke-opacity:1" d="m 279.54954,239.45526 -66.72227,17.87818 -42.21206,0" id="path3141" inkscape:path-effect="#path-effect3143" inkscape:original-d="m 279.54954,239.45526 -66.72227,17.87818 -42.21206,0" inkscape:connector-curvature="0"/>
  <flowRoot xml:space="preserve" id="flowRoot3151" style="font-size:20px;font-style:normal;font-variant:normal;font-weight:normal;font-stretch:normal;line-height:125%;letter-spacing:0px;word-spacing:0px;fill:#000000;fill-opacity:1;stroke:none;font-family:FreeSans;-inkscape-font-specification:FreeSans" transform="translate(855.04581,215.67773)"><flowRegion id="flowRegion3153"><rect id="rect3155" width="257.12924" height="80.733047" x="524.76483" y="390.94702"/></flowRegion><flowPara id="flowPara3157"/></flowRoot>  <path style="fill:none;stroke:#000000;stroke-width:1px;stroke-linecap:butt;stroke-linejoin:miter;stroke-opacity:1" d="m 243.05377,280.37476 -45.34322,23.77754 -27.09534,0" id="path3167" inkscape:path-effect="#path-effect3169" inkscape:original-d="m 243.05377,280.37476 -45.34322,23.77754 -27.09534,0" inkscape:connector-curvature="0"/>
  <path style="fill:none;stroke:#000000;stroke-width:1px;stroke-linecap:butt;stroke-linejoin:miter;stroke-opacity:1" d="m 269.59615,294.19891 -68.01483,66.35593 -30.96611,0" id="path3171" inkscape:path-effect="#path-effect3173" inkscape:original-d="m 269.59615,294.19891 -68.01483,66.35593 -30.96611,0" inkscape:connector-curvature="0"/>
  <path style="fill:none;stroke:#000000;stroke-width:1px;stroke-linecap:butt;stroke-linejoin:miter;stroke-opacity:1" d="m 365.25928,311.89382 -157.04237,86.26272 -37.6017,0" id="path3175" inkscape:path-effect="#path-effect3177" inkscape:original-d="m 365.25928,311.89382 -157.04237,86.26272 -37.6017,0" inkscape:connector-curvature="0"/>
  <path style="fill:none;stroke:#000000;stroke-width:1px;stroke-linecap:butt;stroke-linejoin:miter;stroke-opacity:1" d="m 272.91394,101.76671 -58.6144,-79.627118 -43.68433,0" id="path3179" inkscape:path-effect="#path-effect3181" inkscape:original-d="m 272.91394,101.76671 -58.6144,-79.627118 -43.68433,0" inkscape:connector-curvature="0"/>
  <path style="fill:none;stroke:#000000;stroke-width:1px;stroke-linecap:butt;stroke-linejoin:miter;stroke-opacity:1" d="m 276.78471,149.87476 -71.33263,-71.332628 -34.83687,0" id="path3187" inkscape:path-effect="#path-effect3189" inkscape:original-d="m 276.78471,149.87476 -71.33263,-71.332628 -34.83687,0" inkscape:connector-curvature="0"/>
  <path style="fill:none;stroke:#000000;stroke-width:1px;stroke-linecap:butt;stroke-linejoin:miter;stroke-opacity:1" d="M 278.4436,159.82815 267.93725,142.13323" id="path3191" inkscape:path-effect="#path-effect3193" inkscape:original-d="M 278.4436,159.82815 267.93725,142.13323" inkscape:connector-curvature="0"/>
  <text xml:space="preserve" style="font-size:20px;font-style:normal;font-variant:normal;font-weight:normal;font-stretch:normal;line-height:125%;letter-spacing:0px;word-spacing:0px;fill:#000000;fill-opacity:1;stroke:none;font-family:FreeSans;-inkscape-font-specification:FreeSans" x="86.352539" y="303.07791" id="text3078" sodipodi:linespacing="125%"><tspan sodipodi:role="line" id="tspan3080" x="86.352539" y="303.07791" style="font-size:18px;font-style:normal;font-variant:normal;font-weight:normal;font-stretch:normal;text-align:center;text-anchor:middle;font-family:Liberation Sans;-inkscape-font-specification:Liberation Sans">chambre antérieure</tspan><tspan sodipodi:role="line" x="86.352539" y="325.57791" id="tspan3082" style="font-size:18px;font-style:normal;font-variant:normal;font-weight:normal;font-stretch:normal;text-align:center;text-anchor:middle;font-family:Liberation Sans;-inkscape-font-specification:Liberation Sans">(humeur aqueuse)</tspan></text>
</svg>